<svg width="20" height="16" viewBox="0 0 20 16" fill="none" xmlns="http://www.w3.org/2000/svg">
<path fill-rule="evenodd" clip-rule="evenodd" d="M13.0758 8.10114C13.0758 8.70941 12.8954 9.30402 12.5575 9.8098C12.2197 10.3156 11.7394 10.7098 11.1775 10.9427C10.6156 11.1755 9.99719 11.2366 9.40059 11.118C8.80398 10.9995 8.25591 10.7068 7.82567 10.2768C7.39542 9.84682 7.10231 9.29894 6.98341 8.70241C6.86451 8.10588 6.92516 7.48749 7.15767 6.92542C7.39017 6.36334 7.7841 5.8828 8.28967 5.54459C8.79523 5.20637 9.38973 5.02567 9.99799 5.02528C10.4021 5.02503 10.8022 5.10439 11.1757 5.25886C11.5491 5.41332 11.8884 5.63985 12.1742 5.92549C12.4601 6.21114 12.6868 6.5503 12.8415 6.92361C12.9962 7.29691 13.0758 7.69705 13.0758 8.10114V8.10114Z" stroke="#748383" stroke-opacity="0.8" stroke-width="1.5" stroke-linecap="round" stroke-linejoin="round"/>
<path fill-rule="evenodd" clip-rule="evenodd" d="M1 8.10114C1 11.2918 5.02919 15.2023 10 15.2023C14.9708 15.2023 19 11.2928 19 8.10114C19 4.90952 14.9698 1 10 1C5.03016 1 1 4.91049 1 8.10114Z" stroke="#748383" stroke-opacity="0.8" stroke-width="1.5" stroke-linecap="round" stroke-linejoin="round"/>
</svg>
