<svg width="20" height="18" viewBox="0 0 20 18" fill="none" xmlns="http://www.w3.org/2000/svg">
<path d="M4.56886 14.1086C2.40031 12.6888 1 10.5494 1 8.67262C1 5.48299 5.02593 1.57374 9.99513 1.57374C11.9313 1.58112 13.8222 2.15955 15.4311 3.23662" stroke="#909C9C" stroke-width="1.5" stroke-linecap="round" stroke-linejoin="round"/>
<path d="M17.6287 5.23985C18.452 6.2015 18.9341 7.40844 18.9999 8.67262C18.9999 11.8622 14.9642 15.7715 9.99504 15.7715C9.13067 15.7703 8.2704 15.6525 7.4375 15.4214" stroke="#909C9C" stroke-width="1.5" stroke-linecap="round" stroke-linejoin="round"/>
<path d="M7.82286 10.8382C7.53651 10.5548 7.30952 10.2171 7.15508 9.84493C7.00064 9.47277 6.92185 9.07358 6.92336 8.67065C6.92219 8.06243 7.10152 7.46756 7.43867 6.96133C7.77582 6.45511 8.25566 6.06032 8.81733 5.82697C9.379 5.59362 9.99729 5.53217 10.5939 5.65045C11.1905 5.76873 11.7386 6.06141 12.1687 6.4914" stroke="#909C9C" stroke-width="1.5" stroke-linecap="round" stroke-linejoin="round"/>
<path d="M13.0193 9.21719C12.9079 9.83105 12.6121 10.3964 12.1714 10.838C11.7307 11.2796 11.1659 11.5765 10.5522 11.6891" stroke="#909C9C" stroke-width="1.5" stroke-linecap="round" stroke-linejoin="round"/>
<path d="M17.6695 1L2.33008 16.3394" stroke="#909C9C" stroke-width="1.5" stroke-linecap="round" stroke-linejoin="round"/>
</svg>
